<?xml version="1.0" encoding="UTF-8"?>
<svg xmlns="http://www.w3.org/2000/svg" xmlns:xlink="http://www.w3.org/1999/xlink" viewBox="0 0 96 96" width="96px" height="96px">
<g id="surface1232403">
<path style=" stroke:none;fill-rule:nonzero;fill:rgb(78.823531%,64.705884%,2.745098%);fill-opacity:1;" d="M 24 12 C 17.421875 12 12 17.421875 12 24 L 12 72 C 12 78.578125 17.421875 84 24 84 L 72 84 C 78.578125 84 84 78.578125 84 72 L 84 24 C 84 17.421875 78.578125 12 72 12 Z M 24 20 L 72 20 C 74.261719 20 76 21.738281 76 24 L 76 72 C 76 74.261719 74.261719 76 72 76 L 24 76 C 21.738281 76 20 74.261719 20 72 L 20 24 C 20 21.738281 21.738281 20 24 20 Z M 48 28 L 48 56 C 48 58.261719 46.261719 60 44 60 C 41.738281 60 40 58.261719 40 56 C 40 53.738281 41.738281 52 44 52 L 44 44 C 37.421875 44 32 49.421875 32 56 C 32 62.578125 37.421875 68 44 68 C 50.578125 68 56 62.578125 56 56 L 56 40.929688 C 58.464844 42.683594 61.035156 44 64 44 L 64 36 C 63.8125 36 61.050781 35.125 59.125 33.445312 C 57.199219 31.765625 56 29.660156 56 28 Z M 48 28 "/>
</g>
</svg>
