<?xml version="1.0" encoding="UTF-8"?>
<svg xmlns="http://www.w3.org/2000/svg" xmlns:xlink="http://www.w3.org/1999/xlink" viewBox="0 0 96 96" width="96px" height="96px">
<g id="surface1228293">
<path style=" stroke:none;fill-rule:nonzero;fill:rgb(78.823531%,64.705884%,2.745098%);fill-opacity:1;" d="M 20 12 C 15.578125 12 12 15.578125 12 20 L 12 76 C 12 80.421875 15.578125 84 20 84 L 76 84 C 80.421875 84 84 80.421875 84 76 L 84 20 C 84 15.578125 80.421875 12 76 12 Z M 20 20 L 76 20 L 76 76 L 20 76 Z M 47.164062 35.429688 C 44.804688 35.410156 42.804688 35.441406 41.671875 35.992188 C 40.917969 36.359375 40.339844 37.1875 40.695312 37.234375 C 41.132812 37.289062 42.117188 37.5 42.648438 38.21875 C 43.324219 39.144531 43.304688 41.21875 43.304688 41.21875 C 43.304688 41.21875 43.691406 46.929688 42.390625 47.640625 C 41.5 48.128906 40.277344 47.136719 37.648438 42.59375 C 36.300781 40.261719 35.289062 37.6875 35.289062 37.6875 C 35.289062 37.6875 35.089844 37.203125 34.742188 36.945312 C 34.3125 36.632812 33.71875 36.53125 33.71875 36.53125 L 27.4375 36.5625 C 27.4375 36.5625 26.488281 36.566406 26.140625 36.976562 C 25.832031 37.34375 26.117188 38.070312 26.117188 38.070312 C 26.117188 38.070312 31.042969 49.546875 36.617188 55.359375 C 41.734375 60.6875 47.53125 60.203125 47.53125 60.203125 L 50.164062 60.203125 C 50.164062 60.203125 50.964844 60.25 51.367188 59.8125 C 51.738281 59.410156 51.726562 58.78125 51.726562 58.78125 C 51.726562 58.78125 51.675781 55.246094 53.3125 54.726562 C 54.929688 54.214844 57 58.140625 59.195312 59.648438 C 60.851562 60.792969 62.117188 60.546875 62.117188 60.546875 L 67.992188 60.46875 C 67.992188 60.46875 71.0625 60.277344 69.617188 57.84375 C 69.496094 57.644531 68.769531 56.054688 65.25 52.78125 C 61.5625 49.355469 62.054688 49.910156 66.492188 43.984375 C 69.195312 40.378906 70.277344 38.179688 69.9375 37.234375 C 69.613281 36.332031 67.625 36.570312 67.625 36.570312 L 61.015625 36.609375 C 61.015625 36.609375 60.519531 36.539062 60.15625 36.757812 C 59.800781 36.972656 59.570312 37.46875 59.570312 37.46875 C 59.570312 37.46875 58.523438 40.265625 57.125 42.640625 C 54.183594 47.652344 53.007812 47.914062 52.523438 47.601562 C 51.402344 46.882812 51.6875 44.695312 51.6875 43.140625 C 51.6875 38.285156 52.417969 36.257812 50.25 35.734375 C 49.53125 35.558594 49.003906 35.449219 47.164062 35.429688 Z M 47.164062 35.429688 "/>
</g>
</svg>
